
<svg xmlns="http://www.w3.org/2000/svg" style="display:none">
  <defs>
    <g id="i-base" fill="none" stroke="currentColor" stroke-width="1.25" stroke-linecap="round" stroke-linejoin="round"></g>
  </defs>

  <symbol id="watch" viewBox="0 0 24 24" fill="none" stroke="currentColor" stroke-width="1.25" stroke-linecap="round" stroke-linejoin="round">
    <circle cx="12" cy="13" r="7"></circle>
    <path d="M12 9.5v3.5l2.4 1.6"></path>
    <path d="M9.5 3.5h5l-0.8 2.5h-3.4z"></path>
    <circle cx="12" cy="3.2" r="0.6" fill="currentColor"></circle>
  </symbol>

  <symbol id="calendar" viewBox="0 0 24 24" fill="none" stroke="currentColor" stroke-width="1.25" stroke-linecap="round" stroke-linejoin="round">
    <rect x="3.5" y="5.5" width="17" height="14" rx="1"></rect>
    <path d="M3.5 10h17"></path>
    <path d="M8 3.5v4M16 3.5v4"></path>
    <circle cx="8.5" cy="14" r="0.7" fill="currentColor"></circle>
    <circle cx="12" cy="14" r="0.7" fill="currentColor"></circle>
    <circle cx="15.5" cy="14" r="0.7" fill="currentColor"></circle>
  </symbol>

  <symbol id="book" viewBox="0 0 24 24" fill="none" stroke="currentColor" stroke-width="1.25" stroke-linecap="round" stroke-linejoin="round">
    <path d="M3.5 5.5c3-1 5.5-1 8.5 0 3-1 5.5-1 8.5 0v13c-3-1-5.5-1-8.5 0-3-1-5.5-1-8.5 0z"></path>
    <path d="M12 5.5v13"></path>
  </symbol>

  <symbol id="compass" viewBox="0 0 24 24" fill="none" stroke="currentColor" stroke-width="1.25" stroke-linecap="round" stroke-linejoin="round">
    <circle cx="12" cy="12" r="8.5"></circle>
    <path d="M12 4v2M12 18v2M4 12h2M18 12h2"></path>
    <path d="M15 9l-4 1.5L9.5 14.5l4-1.5z" fill="currentColor" fill-opacity="0.15"></path>
  </symbol>

  <symbol id="search" viewBox="0 0 24 24" fill="none" stroke="currentColor" stroke-width="1.25" stroke-linecap="round" stroke-linejoin="round">
    <circle cx="11" cy="11" r="6.5"></circle>
    <path d="M16 16l4.5 4.5"></path>
  </symbol>

  <symbol id="seal" viewBox="0 0 24 24" fill="none" stroke="currentColor" stroke-width="1.25" stroke-linecap="round" stroke-linejoin="round">
    <circle cx="12" cy="12" r="5"></circle>
    <circle cx="12" cy="12" r="1" fill="currentColor"></circle>
    <path d="M12 2l0.8 4L12 7l-0.8-1z" fill="currentColor"></path>
    <path d="M12 22l0.8-4L12 17l-0.8 1z" fill="currentColor"></path>
    <path d="M2 12l4-0.8L7 12l-1 0.8z" fill="currentColor"></path>
    <path d="M22 12l-4-0.8L17 12l1 0.8z" fill="currentColor"></path>
  </symbol>

  <symbol id="archive" viewBox="0 0 24 24" fill="none" stroke="currentColor" stroke-width="1.25" stroke-linecap="round" stroke-linejoin="round">
    <rect x="3.5" y="4.5" width="17" height="3.5"></rect>
    <path d="M5 8v11.5h14V8"></path>
    <path d="M10 12h4"></path>
  </symbol>

  <symbol id="timeline" viewBox="0 0 24 24" fill="none" stroke="currentColor" stroke-width="1.25" stroke-linecap="round" stroke-linejoin="round">
    <path d="M3.5 12h17"></path>
    <circle cx="7" cy="12" r="1.4" fill="currentColor"></circle>
    <circle cx="12" cy="12" r="1.4"></circle>
    <circle cx="17" cy="12" r="1.4" fill="currentColor"></circle>
  </symbol>

  <symbol id="filter" viewBox="0 0 24 24" fill="none" stroke="currentColor" stroke-width="1.25" stroke-linecap="round" stroke-linejoin="round">
    <path d="M4 5h16l-6 8v5l-4 1.5v-6.5z"></path>
  </symbol>

  <symbol id="external" viewBox="0 0 24 24" fill="none" stroke="currentColor" stroke-width="1.25" stroke-linecap="round" stroke-linejoin="round">
    <path d="M10 4h-5v15h15v-5"></path>
    <path d="M14 4h6v6"></path>
    <path d="M11 13l9-9"></path>
  </symbol>

  <symbol id="arrow-right" viewBox="0 0 24 24" fill="none" stroke="currentColor" stroke-width="1.25" stroke-linecap="round" stroke-linejoin="round">
    <path d="M4 12h15"></path>
    <path d="M14 7l5 5-5 5"></path>
  </symbol>

  <symbol id="moon" viewBox="0 0 24 24" fill="none" stroke="currentColor" stroke-width="1.25" stroke-linecap="round" stroke-linejoin="round">
    <path d="M20 14.5A8.5 8.5 0 1 1 10 4a6.5 6.5 0 0 0 10 10.5z"></path>
  </symbol>

  <symbol id="star" viewBox="0 0 24 24" fill="none" stroke="currentColor" stroke-width="1.25" stroke-linecap="round" stroke-linejoin="round">
    <path d="M12 3l2.4 5 5.6.5-4.3 3.9 1.3 5.6L12 15l-5 3 1.3-5.6L4 8.5 9.6 8z"></path>
  </symbol>

  <symbol id="gavel" viewBox="0 0 24 24" fill="none" stroke="currentColor" stroke-width="1.25" stroke-linecap="round" stroke-linejoin="round">
    <path d="M14 4l6 6-2 2-6-6z"></path>
    <path d="M11 7l-7 7 2 2 7-7"></path>
    <path d="M4 20h10"></path>
  </symbol>

  <symbol id="chevron-down" viewBox="0 0 24 24" fill="none" stroke="currentColor" stroke-width="1.25" stroke-linecap="round" stroke-linejoin="round">
    <path d="M6 9l6 6 6-6"></path>
  </symbol>

  <symbol id="sort" viewBox="0 0 24 24" fill="none" stroke="currentColor" stroke-width="1.25" stroke-linecap="round" stroke-linejoin="round">
    <path d="M8 4v16M4 8l4-4 4 4"></path>
    <path d="M16 20V4M12 16l4 4 4-4"></path>
  </symbol>
</svg>